<svg xmlns="http://www.w3.org/2000/svg" xmlns:xlink="http://www.w3.org/1999/xlink" version="1.1" id="Layer_1" x="0px" y="0px" style="enable-background:new 0 0 516.5 94.6;" xml:space="preserve" viewBox="46.5 26 257.1 42.6">
<style type="text/css">
	.st0{fill:#1D252C;}
	.st1{opacity:0.7;fill:#1D252C;}
</style>
<g>
	<path class="st0" d="M70.3,48.2C70.3,48.2,70.3,48.2,70.3,48.2l-1.1-0.9l1.3-1c0,0,0,0,0,0c0.1-0.1,1-0.8,1.5-1.4   c1.3-1.5,2-3.5,2-5.9c0-5.4-4.4-9.7-9.7-9.7H47.9c-0.4,0-0.7,0.1-1,0.4c-0.3,0.3-0.4,0.6-0.4,1l0,16.7v0l0,16.7   c0,0.4,0.1,0.7,0.4,1c0.3,0.3,0.6,0.4,1,0.4h16.5c5.4,0,9.7-4.4,9.7-9.7c0-2.5-0.7-4.4-2-5.9C71.3,49,70.3,48.2,70.3,48.2    M64.3,62.6H49.2l0-15.3v0l0-15.3h15.1c3.8,0,7,3.1,7,7c0,1.7-0.4,3.1-1.3,4.1c-0.3,0.4-1,0.9-1.2,1.1l-1.9,1.5l-9.4-7.1   c-0.4-0.3-1-0.4-1.4-0.1c-0.5,0.2-0.8,0.7-0.8,1.2v15.5c0,0.5,0.3,1,0.8,1.2c0.5,0.2,1,0.2,1.4-0.1l9.4-7.2l1.7,1.3   c0.2,0.2,0.9,0.8,1.4,1.2c0.9,1,1.3,2.3,1.3,4.1C71.3,59.5,68.2,62.6,64.3,62.6 M64.6,47.3l-6.5,5v-10L64.6,47.3z"/>
	<g>
		<g>
			<path class="st0" d="M89.6,38.3c0.7,0.2,1.2,0.6,1.5,1.2c0.4,0.5,0.6,1.1,0.6,1.8c0,1.1-0.4,2-1.2,2.6c-0.8,0.6-1.9,0.9-3.3,0.9     h-5.8V32.3h5.7c1.3,0,2.3,0.3,3,0.9c0.7,0.6,1.1,1.4,1.1,2.5c0,0.6-0.2,1.1-0.4,1.5C90.6,37.7,90.2,38,89.6,38.3L89.6,38.3     L89.6,38.3z M87.3,34.4h-3.4v3h3.3c0.5,0,0.9-0.1,1.2-0.4c0.3-0.3,0.4-0.6,0.4-1.1c0-0.5-0.1-0.9-0.4-1.1     C88.2,34.5,87.8,34.4,87.3,34.4 M87.4,42.7c0.6,0,1-0.2,1.4-0.4c0.3-0.3,0.5-0.7,0.5-1.2c0-0.5-0.2-0.9-0.5-1.2s-0.8-0.4-1.4-0.4     h-3.5v3.3L87.4,42.7L87.4,42.7z"/>
			<path class="st0" d="M104,44.8l-1.1-2.4h-6.2l-1.1,2.4H93l5.5-12.5h2.7l5.5,12.5H104z M99,36.7l-1.4,3.6h4.4l-1.4-3.6     c-0.5-1.1-0.7-1.8-0.8-2h-0.1C99.7,35.1,99.4,35.8,99,36.7"/>
			<path class="st0" d="M114.4,45.1c-2,0-3.6-0.6-4.9-1.8c-1.2-1.2-1.8-2.8-1.8-4.7c0-1.9,0.6-3.5,1.9-4.8c1.3-1.2,2.9-1.8,4.9-1.8     c1.8,0,3.3,0.6,4.6,1.8l-1.4,1.8c-1-0.9-2.1-1.3-3.3-1.3c-1.2,0-2.2,0.4-3,1.2c-0.8,0.8-1.2,1.8-1.2,3c0,1.3,0.4,2.3,1.2,3.1     c0.8,0.8,1.8,1.2,3,1.2c1.3,0,2.4-0.4,3.3-1.3l1.4,1.8C117.9,44.5,116.3,45.1,114.4,45.1"/>
			<path class="st0" d="M126.4,38.4l6.1,6.4h-3.3l-3.7-3.9c-0.7-0.8-1.1-1.3-1.3-1.6l-0.1,0c0,0.6,0.1,1.2,0.1,1.9v3.6h-2.5V32.3     h2.5v3.4c0,0.6,0,1.2-0.1,1.9l0.1,0c0.3-0.4,0.7-0.9,1.4-1.7l3.3-3.6h3.1L126.4,38.4L126.4,38.4z"/>
			<polygon class="st0" points="137.1,42.6 143.6,42.6 143.6,44.8 134.7,44.8 134.7,32.3 137.1,32.3    "/>
			<rect x="146.4" y="32.3" class="st0" width="2.5" height="12.5"/>
			<path class="st0" d="M158,37.6h5.6V43c-1.3,1.4-3.1,2.1-5.2,2.1c-2,0-3.6-0.6-4.8-1.8c-1.2-1.2-1.8-2.7-1.8-4.7     c0-2,0.6-3.5,1.9-4.8c1.3-1.2,2.9-1.8,4.9-1.8c1.8,0,3.4,0.5,4.7,1.6l-1.3,1.8c-1-0.8-2.1-1.2-3.3-1.2c-1.3,0-2.3,0.4-3.1,1.2     c-0.8,0.8-1.2,1.8-1.2,3.1c0,1.3,0.4,2.4,1.1,3.2c0.7,0.8,1.8,1.2,3,1.2c1.2,0,2.1-0.3,3-0.9v-2.3H158L158,37.6L158,37.6z"/>
			<polygon class="st0" points="174.9,32.3 177.3,32.3 177.3,44.8 174.9,44.8 174.9,39.6 168.8,39.6 168.8,44.8 166.4,44.8      166.4,32.3 168.8,32.3 168.8,37.3 174.9,37.3    "/>
			<polygon class="st0" points="179.7,32.3 179.7,34.4 183.7,34.4 183.7,44.8 186.2,44.8 186.2,34.4 190.1,34.4 190.1,32.3    "/>
		</g>
		<path class="st0" d="M86.7,62.4c0.8,0,1.6-0.2,2.4-0.5c0.7-0.3,1.4-0.7,2-1.3l-0.7-0.7c-0.5,0.5-1.1,0.9-1.7,1.1    c-0.6,0.3-1.3,0.4-2,0.4c-1,0-1.9-0.2-2.7-0.7c-0.8-0.4-1.4-1.1-1.8-1.9c-0.4-0.8-0.7-1.7-0.7-2.7c0-1,0.2-1.9,0.7-2.7    c0.4-0.8,1.1-1.4,1.8-1.9c0.8-0.4,1.7-0.7,2.7-0.7c0.7,0,1.3,0.1,2,0.4c0.6,0.2,1.1,0.6,1.6,1.1l0.7-0.7c-0.6-0.6-1.2-1-1.9-1.4    c-0.7-0.3-1.5-0.5-2.4-0.5c-1.2,0-2.3,0.3-3.2,0.8c-0.9,0.5-1.7,1.3-2.2,2.2c-0.5,0.9-0.8,2-0.8,3.2c0,1.2,0.3,2.3,0.8,3.2    c0.5,0.9,1.2,1.7,2.2,2.2C84.4,62.2,85.5,62.4,86.7,62.4z M93.7,62.2h1v-4.5h3.3l4.1,4.5h1.3l-4.1-4.5c1.1-0.1,2-0.4,2.7-1.1    c0.7-0.7,1-1.6,1-2.6c0-0.7-0.2-1.4-0.5-2c-0.3-0.6-0.8-1-1.4-1.3c-0.6-0.3-1.3-0.5-2.1-0.5h-5.3V62.2z M94.7,56.7v-5.5H99    c0.9,0,1.6,0.2,2.2,0.8c0.5,0.5,0.8,1.2,0.8,2c0,0.8-0.3,1.5-0.8,2c-0.5,0.5-1.2,0.8-2.2,0.8L94.7,56.7L94.7,56.7z M105.9,62.2    h8.6v-1h-7.5v-4.6h7v-1h-7v-4.5h7.3v-1h-8.3V62.2z M116,62.2h1.1l1.3-2.9h7.1l1.3,2.9h1.1l-5.4-12h-1.2L116,62.2L116,62.2z     M118.8,58.3l3.1-7.1l3.1,7.1H118.8L118.8,58.3z M127.6,51.2h4.3v11h1v-11h4.3v-1h-9.6L127.6,51.2L127.6,51.2z M139.4,62.2h1v-12    h-1V62.2z M147.6,62.2h1.1l4.9-12h-1.1L148.2,61l-1.9-4.6l-2.6-6.2h-1.1L147.6,62.2L147.6,62.2z M156.1,62.2h8.6v-1h-7.5v-4.6h7    v-1h-7v-4.5h7.3v-1h-8.3V62.2z"/>
	</g>
</g>
<g>
	<rect x="211.7" y="26" class="st1" width="1" height="42.6"/>
	<g>
		<path class="st0" d="M247.1,57.4c-0.9,0.4-2.8,0.9-5,0.9c-5.5,0-9.1-3.5-9.1-9c0-5.3,3.6-9.4,9.8-9.4c1.6,0,3.3,0.4,4.3,0.8    l-0.8,3.4c-0.7-0.4-1.8-0.7-3.4-0.7c-3.4,0-5.4,2.5-5.4,5.7c0,3.6,2.4,5.7,5.4,5.7c1.5,0,2.6-0.3,3.5-0.7L247.1,57.4z"/>
		<path class="st0" d="M260,47.3c0-1.6-0.7-4.3-3.6-4.3c-2.7,0-3.9,2.5-4.1,4.3H260z M252.3,50.4c0.1,3.2,2.6,4.6,5.4,4.6    c2.1,0,3.5-0.3,4.9-0.8l0.7,3c-1.5,0.7-3.6,1.1-6.1,1.1c-5.7,0-9.1-3.5-9.1-8.9c0-4.9,3-9.5,8.6-9.5c5.7,0,7.6,4.7,7.6,8.6    c0,0.8-0.1,1.5-0.1,1.9H252.3z"/>
		<rect x="266.9" y="32.3" class="st0" width="4.4" height="25.6"/>
		<path class="st0" d="M280.3,35.9v4.5h4.2v3.3h-4.2v7.8c0,2.2,0.6,3.3,2.3,3.3c0.8,0,1.2,0,1.7-0.2l0.1,3.4    c-0.7,0.3-1.8,0.5-3.2,0.5c-1.7,0-3-0.5-3.8-1.4c-1-1-1.4-2.6-1.4-4.9v-8.3h-2.5v-3.3h2.5v-3.3L280.3,35.9z"/>
		<path class="st0" d="M291.4,40.4l2.1,3.3c0.6,0.9,1.1,1.8,1.6,2.7h0.1c0.5-1,1-1.9,1.6-2.8l1.9-3.3h4.8l-5.9,8.4l6,9.1h-5.1    l-2.1-3.5c-0.6-0.9-1.1-1.9-1.6-2.9h-0.1c-0.5,1-1,1.9-1.6,2.9l-2,3.5h-4.9l6.1-9l-5.9-8.6H291.4z"/>
	</g>
</g>
</svg>