<?xml version="1.0" encoding="UTF-8" standalone="no"?>
<svg
   xmlns:dc="http://purl.org/dc/elements/1.1/"
   xmlns:cc="http://creativecommons.org/ns#"
   xmlns:rdf="http://www.w3.org/1999/02/22-rdf-syntax-ns#"
   xmlns:svg="http://www.w3.org/2000/svg"
   xmlns="http://www.w3.org/2000/svg"
   xmlns:sodipodi="http://sodipodi.sourceforge.net/DTD/sodipodi-0.dtd"
   xmlns:inkscape="http://www.inkscape.org/namespaces/inkscape"
   version="1.1"
   id="svg2"
   xml:space="preserve"
   width="1025.0667"
   height="378.13333"
   viewBox="0 0 1025.0667 378.13333"
   sodipodi:docname="Celtx - Logo (Black).eps"><metadata
     id="metadata8"><rdf:RDF><cc:Work
         rdf:about=""><dc:format>image/svg+xml</dc:format><dc:type
           rdf:resource="http://purl.org/dc/dcmitype/StillImage" /></cc:Work></rdf:RDF></metadata><defs
     id="defs6" /><sodipodi:namedview
     pagecolor="#ffffff"
     bordercolor="#666666"
     borderopacity="1"
     objecttolerance="10"
     gridtolerance="10"
     guidetolerance="10"
     inkscape:pageopacity="0"
     inkscape:pageshadow="2"
     inkscape:window-width="640"
     inkscape:window-height="480"
     id="namedview4" /><g
     id="g10"
     inkscape:groupmode="layer"
     inkscape:label="ink_ext_XXXXXX"
     transform="matrix(1.3333333,0,0,-1.3333333,0,378.13333)"><g
       id="g12"
       transform="scale(0.1)"><path
         d="M 1530,103 C 1428,56 1227,5 987,5 389,5 0,390 0,984 c 0,574 393,1019 1066,1019 177,0 358,-39 468,-87 l -87,-366 c -79,39 -193,75 -366,75 -370.004,0 -590.004,-271 -586,-621 0,-393 255.996,-617 586,-617 165,0 287,35 381,75 l 68,-359"
         style="fill:#1a1918;fill-opacity:1;fill-rule:nonzero;stroke:none"
         id="path14" /><path
         d="m 2938,1204 c 4,177 -75,468 -397,468 -299,0 -425,-271 -444,-468 z M 2096,866 c 12,-346 279,-496 590,-496 224,0 381,35 531,87 l 71,-330 C 3123,56 2895,5 2619,5 c -621,0 -987,381 -987,967 0,531 322,1030 936,1030 621,0 826,-511 826,-932 0,-90 -8,-161.012 -16,-204 H 2096 v 0"
         style="fill:#1a1918;fill-opacity:1;fill-rule:nonzero;stroke:none"
         id="path16" /><path
         d="m 3685,2836 h 484 V 44 h -484 v 2792 0"
         style="fill:#1a1918;fill-opacity:1;fill-rule:nonzero;stroke:none"
         id="path18" /><path
         d="m 5152,2450 v -492 h 460 V 1596 H 5152 V 751 c 0,-236 63,-354 248,-354 87,0 134,4 189,20 l 8,-366 C 5526,23 5396,0 5247,0 5066,0 4921,59 4830,157 4724,267 4677,444 4677,696 v 901 h -271 v 362 h 271 v 358 l 475,133"
         style="fill:#1a1918;fill-opacity:1;fill-rule:nonzero;stroke:none"
         id="path20" /><path
         d="m 6359,1959 228,-362 c 63,-102 118,-197 173,-295 h 8 c 55,106 110,204 169,303 l 212,354 h 527 L 7035,1039 7688,44 h -551 l -232,381 c -63,102 -118,204 -173,311 h -7.99 C 6669.01,626 6610,532 6551,425 L 6331,44 h -535 l 665,975 -641,940 h 539 v 0"
         style="fill:#1a1918;fill-opacity:1;fill-rule:nonzero;stroke:none"
         id="path22" /></g></g></svg>
