<?xml version="1.0" encoding="utf-8"?>
<!-- Generator: Adobe Illustrator 27.3.0, SVG Export Plug-In . SVG Version: 6.00 Build 0)  -->
<svg version="1.1" id="Group_2677" xmlns="http://www.w3.org/2000/svg" xmlns:xlink="http://www.w3.org/1999/xlink" x="0px" y="0px"
	 viewBox="0 0 25.8 34.5" style="enable-background:new 0 0 25.8 34.5;" xml:space="preserve">
<style type="text/css">
	.st0{fill:#2FB5B4;}
	.st1{clip-path:url(#SVGID_00000131327523902685945780000018352525970332193413_);}
</style>
<path id="Path_1567" class="st0" d="M23.1,5.5v26.4H2.7V5.5H0v29.1h25.8V5.5H23.1z"/>
<g id="Group_2621" transform="translate(0 0)">
	<g>
		<defs>
			<rect id="SVGID_1_" width="25.8" height="34.5"/>
		</defs>
		<clipPath id="SVGID_00000098221230554836317850000007299936990794694305_">
			<use xlink:href="#SVGID_1_"  style="overflow:visible;"/>
		</clipPath>
		<g id="Group_2620" style="clip-path:url(#SVGID_00000098221230554836317850000007299936990794694305_);">
			<path id="Path_1568" class="st0" d="M20.3,12.8h1.3V5.5h-4V4.7c0-2.6-2.1-4.7-4.7-4.7c-1.3,0-2.5,0.5-3.3,1.4l0,0
				C8.7,2.3,8.2,3.5,8.2,4.7v0.7h-4v7.3L20.3,12.8L20.3,12.8z M6.9,8.1h4V4.7c0-0.5,0.2-1.1,0.6-1.4l0,0c0.8-0.8,2.1-0.8,2.9,0
				c0.4,0.4,0.6,0.9,0.6,1.4v3.4h4v2h-12V8.1z"/>
			<path id="Path_1569" class="st0" d="M8.2,20.2l-1.9,1.9l5,5l8.3-8.3l-1.9-1.9l-6.4,6.4L8.2,20.2z"/>
		</g>
	</g>
</g>
</svg>
