<svg height="22.207" viewBox="0 0 71.556 22.207" width="71.556" xmlns="http://www.w3.org/2000/svg" xmlns:xlink="http://www.w3.org/1999/xlink"><clipPath id="a"><path d="m0 0h31.639v22.207h-31.639z"/></clipPath><g fill="#fff"><g clip-path="url(#a)" opacity=".201" transform="translate(39.917)"><path d="m181.1 7.018a7.145 7.145 0 0 1 7.023-7.018 7.893 7.893 0 0 1 7.306 7.979c0 7.931-6.344 13.651-10.863 14.228-.336-.577-.769-1.442-.769-1.442 2.018-.818 7.594-4.615 7.883-8.075-1.538.961-2.2 1.442-4.038 1.442-3.845 0-6.537-3.557-6.537-7.114" transform="translate(-163.79)"/><path d="m0 7.018a7.145 7.145 0 0 1 7.017-7.018 7.894 7.894 0 0 1 7.306 7.979c0 7.931-6.345 13.651-10.863 14.228-.336-.577-.769-1.442-.769-1.442 2.019-.818 7.594-4.615 7.883-8.075-1.538.961-2.2 1.442-4.038 1.442-3.845 0-6.536-3.557-6.536-7.114"/></g><g clip-path="url(#a)" transform="matrix(-1 0 0 -1 31.638 22.207)"><path d="m0 7.018a7.145 7.145 0 0 1 7.018-7.018 7.893 7.893 0 0 1 7.306 7.979c0 7.931-6.344 13.651-10.863 14.228-.336-.577-.769-1.442-.769-1.442 2.018-.818 7.594-4.615 7.883-8.075-1.538.961-2.2 1.442-4.038 1.442-3.845 0-6.537-3.557-6.537-7.114" transform="translate(17.315)"/><path d="m0 7.018a7.145 7.145 0 0 1 7.017-7.018 7.894 7.894 0 0 1 7.306 7.979c0 7.931-6.345 13.651-10.863 14.228-.336-.577-.769-1.442-.769-1.442 2.019-.818 7.594-4.615 7.883-8.075-1.538.961-2.2 1.442-4.038 1.442-3.845 0-6.536-3.557-6.536-7.114"/></g></g></svg>